{
  "accessors": [
    {
      "bufferView": 2,
      "componentType": 5126,
      "count": 8848,
      "max": [
        0.9274473190307617,
        0.9274474382400513,
        0.7995143532752991
      ],
      "min": [
        -0.9274468421936035,
        -0.9274470806121826,
        -0.6537192463874817
      ],
      "type": "VEC3"
    },
    {
      "bufferView": 2,
      "byteOffset": 106176,
      "componentType": 5126,
      "count": 8848,
      "max": [
        0.9999998807907104,
        0.9999998807907104,
        0.9999974966049194
      ],
      "min": [
        -0.9999998807907104,
        -0.9999998807907104,
        -1.0
      ],
      "type": "VEC3"
    },
    {
      "bufferView": 1,
      "componentType": 5126,
      "count": 8848,
      "max": [
        1.0000001192092896,
        0.8125002980232239
      ],
      "min": [
        0.0,
        0.0
      ],
      "type": "VEC2"
    },
    {
      "bufferView": 0,
      "componentType": 5125,
      "count": 20910,
      "type": "SCALAR"
    },
    {
      "bufferView": 2,
      "byteOffset": 212352,
      "componentType": 5126,
      "count": 632,
      "max": [
        0.15668080747127533,
        0.15668077766895294,
        1.0334206819534302
      ],
      "min": [
        -0.20609623193740845,
        -0.15668076276779175,
        0.703177809715271
      ],
      "type": "VEC3"
    },
    {
      "bufferView": 2,
      "byteOffset": 219936,
      "componentType": 5126,
      "count": 632,
      "max": [
        0.997624933719635,
        0.9999910593032837,
        0.9991931915283203
      ],
      "min": [
        -0.996048629283905,
        -0.9999910593032837,
        -1.0
      ],
      "type": "VEC3"
    },
    {
      "bufferView": 1,
      "byteOffset": 70784,
      "componentType": 5126,
      "count": 632,
      "max": [
        0.7123983502388,
        0.8125004768371582
      ],
      "min": [
        0.25266599655151367,
        0.8124993443489075
      ],
      "type": "VEC2"
    },
    {
      "bufferView": 0,
      "byteOffset": 83640,
      "componentType": 5125,
      "count": 2688,
      "type": "SCALAR"
    },
    {
      "bufferView": 2,
      "byteOffset": 227520,
      "componentType": 5126,
      "count": 1408,
      "max": [
        0.5165373682975769,
        0.6482558250427246,
        0.3828738033771515
      ],
      "min": [
        -0.5357261300086975,
        0.6482558250427246,
        -0.3613932430744171
      ],
      "type": "VEC3"
    },
    {
      "bufferView": 2,
      "byteOffset": 244416,
      "componentType": 5126,
      "count": 1408,
      "max": [
        0.0,
        1.0,
        2.010025127674453e-06
      ],
      "min": [
        0.0,
        1.0,
        -1.3834007859259145e-06
      ],
      "type": "VEC3"
    },
    {
      "bufferView": 1,
      "byteOffset": 75840,
      "componentType": 5126,
      "count": 1408,
      "max": [
        1.0,
        0.0
      ],
      "min": [
        0.0,
        0.0
      ],
      "type": "VEC2"
    },
    {
      "bufferView": 0,
      "byteOffset": 94392,
      "componentType": 5125,
      "count": 4200,
      "type": "SCALAR"
    },
    {
      "bufferView": 2,
      "byteOffset": 261312,
      "componentType": 5126,
      "count": 14,
      "max": [
        3.156740665435791,
        3.156740665435791,
        3.541152000427246
      ],
      "min": [
        -3.156740665435791,
        -3.156740665435791,
        -1.013887882232666
      ],
      "type": "VEC3"
    },
    {
      "bufferView": 2,
      "byteOffset": 261480,
      "componentType": 5126,
      "count": 14,
      "max": [
        0.5773502588272095,
        0.5773502588272095,
        0.5773502588272095
      ],
      "min": [
        -0.5773502588272095,
        -0.5773502588272095,
        -0.5773502588272095
      ],
      "type": "VEC3"
    },
    {
      "bufferView": 1,
      "byteOffset": 87104,
      "componentType": 5126,
      "count": 14,
      "max": [
        0.875,
        1.0
      ],
      "min": [
        0.125,
        0.0
      ],
      "type": "VEC2"
    },
    {
      "bufferView": 0,
      "byteOffset": 111192,
      "componentType": 5125,
      "count": 36,
      "type": "SCALAR"
    }
  ],
  "asset": {
    "extras": {
      "author": "dylanheyes (https://sketchfab.com/dylanheyes)",
      "license": "CC-BY-4.0 (http://creativecommons.org/licenses/by/4.0/)",
      "source": "https://sketchfab.com/3d-models/jack-o-lantern-pumpkin-35c3b0d3c04a40849928f79a3e8dfd3e",
      "title": "Jack-o'-lantern Pumpkin"
    },
    "generator": "Sketchfab-14.25.0",
    "version": "2.0"
  },
  "bufferViews": [
    {
      "buffer": 0,
      "byteLength": 111336,
      "name": "floatBufferViews",
      "target": 34963
    },
    {
      "buffer": 0,
      "byteLength": 87216,
      "byteOffset": 111336,
      "byteStride": 8,
      "name": "floatBufferViews",
      "target": 34962
    },
    {
      "buffer": 0,
      "byteLength": 261648,
      "byteOffset": 198552,
      "byteStride": 12,
      "name": "floatBufferViews",
      "target": 34962
    }
  ],
  "buffers": [
    {
      "byteLength": 460200,
      "uri": "scene.bin"
    }
  ],
  "materials": [
    {
      "doubleSided": true,
      "name": "Pumpkin",
      "pbrMetallicRoughness": {
        "baseColorFactor": [
          0.7999999999999999,
          0.139847,
          0.036525,
          1.0
        ],
        "metallicFactor": 0.4,
        "roughnessFactor": 0.587
      }
    },
    {
      "doubleSided": true,
      "name": "Stem",
      "pbrMetallicRoughness": {
        "baseColorFactor": [
          0.0444269,
          0.0439579,
          0.0288456,
          1.0
        ],
        "metallicFactor": 0.0,
        "roughnessFactor": 0.9903923982248424
      }
    },
    {
      "doubleSided": true,
      "emissiveFactor": [
        1.0,
        1.0,
        0.0
      ],
      "name": "Light",
      "pbrMetallicRoughness": {
        "baseColorFactor": [
          0.8,
          0.8,
          0.8,
          1.0
        ],
        "metallicFactor": 0.0,
        "roughnessFactor": 0.8211145618000169
      }
    },
    {
      "emissiveFactor": [
        0.06669259859280312,
        0.04593086176538341,
        0.004649780113445445
      ],
      "name": "Background",
      "pbrMetallicRoughness": {
        "baseColorFactor": [
          0.0,
          0.0,
          0.0,
          1.0
        ],
        "metallicFactor": 0.8550764578180836,
        "roughnessFactor": 0.4941322933532206
      }
    }
  ],
  "meshes": [
    {
      "name": "Jack-o'-lantern_Pumpkin_0",
      "primitives": [
        {
          "attributes": {
            "NORMAL": 1,
            "POSITION": 0,
            "TEXCOORD_0": 2
          },
          "indices": 3,
          "material": 0,
          "mode": 4
        }
      ]
    },
    {
      "name": "Jack-o'-lantern_Stem_0",
      "primitives": [
        {
          "attributes": {
            "NORMAL": 5,
            "POSITION": 4,
            "TEXCOORD_0": 6
          },
          "indices": 7,
          "material": 1,
          "mode": 4
        }
      ]
    },
    {
      "name": "Jack-o'-lantern_Light_0",
      "primitives": [
        {
          "attributes": {
            "NORMAL": 9,
            "POSITION": 8,
            "TEXCOORD_0": 10
          },
          "indices": 11,
          "material": 2,
          "mode": 4
        }
      ]
    },
    {
      "name": "Background_Background_0",
      "primitives": [
        {
          "attributes": {
            "NORMAL": 13,
            "POSITION": 12,
            "TEXCOORD_0": 14
          },
          "indices": 15,
          "material": 3,
          "mode": 4
        }
      ]
    }
  ],
  "nodes": [
    {
      "children": [
        1
      ],
      "matrix": [
        1.0,
        0.0,
        0.0,
        0.0,
        0.0,
        2.220446049250313e-16,
        -1.0,
        0.0,
        0.0,
        1.0,
        2.220446049250313e-16,
        0.0,
        0.0,
        0.0,
        0.0,
        1.0
      ],
      "name": "Sketchfab_model"
    },
    {
      "children": [
        2
      ],
      "matrix": [
        0.009999999776482582,
        0.0,
        0.0,
        0.0,
        0.0,
        0.0,
        0.009999999776482582,
        0.0,
        0.0,
        -0.009999999776482582,
        0.0,
        0.0,
        0.0,
        0.0,
        0.0,
        1.0
      ],
      "name": "Jack-o'-lantern.fbx"
    },
    {
      "children": [
        3,
        7
      ],
      "name": "RootNode"
    },
    {
      "children": [
        4,
        5,
        6
      ],
      "matrix": [
        -229.9999999999991,
        -2.0107239355049923e-05,
        0.0,
        0.0,
        -3.2758851035396287e-12,
        3.747175638779687e-05,
        229.9999999999969,
        0.0,
        -2.0107239355049655e-05,
        229.99999999999605,
        -3.747175636226174e-05,
        0.0,
        0.0,
        0.0,
        0.0,
        1.0
      ],
      "name": "Jack-o'-lantern"
    },
    {
      "mesh": 0,
      "name": "Jack-o'-lantern_Pumpkin_0"
    },
    {
      "mesh": 1,
      "name": "Jack-o'-lantern_Stem_0"
    },
    {
      "mesh": 2,
      "name": "Jack-o'-lantern_Light_0"
    },
    {
      "children": [
        8
      ],
      "matrix": [
        -897.5962524414026,
        -7.847035953058769e-05,
        0.0,
        0.0,
        -1.2784444314633908e-11,
        0.00014623699176558174,
        897.5962524413942,
        0.0,
        -7.847035953058664e-05,
        897.5962524413908,
        -0.00014623699166592852,
        0.0,
        0.0,
        776.111572265625,
        0.0,
        1.0
      ],
      "name": "Background"
    },
    {
      "mesh": 3,
      "name": "Background_Background_0"
    }
  ],
  "scene": 0,
  "scenes": [
    {
      "name": "Sketchfab_Scene",
      "nodes": [
        0
      ]
    }
  ]
}
